<svg height="512" viewBox="0 0 512 512" width="512" xmlns="http://www.w3.org/2000/svg"><g id="Blue"><path d="m24 128h464a0 0 0 0 1 0 0v344a16 16 0 0 1 -16 16h-432a16 16 0 0 1 -16-16v-344a0 0 0 0 1 0 0z" fill="#bbd1fb"/><path d="m40 56h432a16 16 0 0 1 16 16v64a0 0 0 0 1 0 0h-464a0 0 0 0 1 0 0v-64a16 16 0 0 1 16-16z" fill="#4282f5"/><g fill="#206df3"><rect height="64" rx="16" width="32" x="72" y="24"/><rect height="64" rx="16" width="32" x="296" y="24"/><rect height="64" rx="16" width="32" x="184" y="24"/><rect height="64" rx="16" width="32" x="408" y="24"/></g><circle cx="256" cy="312" fill="#6498f6" r="72"/><circle cx="152" cy="208" fill="#4282f5" r="32"/><circle cx="360" cy="416" fill="#4282f5" r="32"/><path d="m472 48h-24v-8a24 24 0 0 0 -48 0v8h-64v-8a24 24 0 0 0 -48 0v8h-64v-8a24 24 0 0 0 -48 0v8h-64v-8a24 24 0 0 0 -48 0v8h-24a24.028 24.028 0 0 0 -24 24v400a24.028 24.028 0 0 0 24 24h432a24.028 24.028 0 0 0 24-24v-400a24.028 24.028 0 0 0 -24-24zm-56-8a8 8 0 0 1 16 0v32a8 8 0 0 1 -16 0zm-112 0a8 8 0 0 1 16 0v32a8 8 0 0 1 -16 0zm-112 0a8 8 0 0 1 16 0v32a8 8 0 0 1 -16 0zm-112 0a8 8 0 0 1 16 0v32a8 8 0 0 1 -16 0zm400 432a8.009 8.009 0 0 1 -8 8h-432a8.009 8.009 0 0 1 -8-8v-328h448zm0-344h-448v-56a8.009 8.009 0 0 1 8-8h24v8a24 24 0 0 0 48 0v-8h64v8a24 24 0 0 0 48 0v-8h64v8a24 24 0 0 0 48 0v-8h64v8a24 24 0 0 0 48 0v-8h24a8.009 8.009 0 0 1 8 8z" fill="#0444b7"/><path d="m340 304h-4.4a80 80 0 0 0 -159.2 0h-4.4a60 60 0 0 0 0 120h148.805a40 40 0 1 0 0-16h-148.805a44 44 0 0 1 0-88h4.4a80 80 0 0 0 159.2 0h4.4a60 60 0 0 0 0-120h-148.8a40 40 0 1 0 0 16h148.8a44 44 0 0 1 0 88zm20 88a24 24 0 1 1 -24 24 24.028 24.028 0 0 1 24-24zm-104-16a64 64 0 1 1 64-64 64.072 64.072 0 0 1 -64 64zm-104-144a24 24 0 1 1 24-24 24.028 24.028 0 0 1 -24 24z" fill="#0444b7"/><path d="m248 304h-32v16h40a8 8 0 0 0 8-8v-48h-16z" fill="#0444b7"/></g></svg>